<svg width="2000" height="1500" viewBox="0 0 2000 1500" fill="none" xmlns="http://www.w3.org/2000/svg">
<rect width="2000" height="1500" rx="50" fill="white"/>
<path d="M757.724 807.286L1016.36 762.647C1017.35 762.477 1017.95 763.694 1017.21 764.369L895.682 875.882C895.608 875.949 895.532 876.003 895.44 876.044C885.11 880.625 843.008 863.498 822.143 853.866C821.58 853.607 820.933 853.922 820.769 854.52C815.523 873.58 808.944 891.364 805.975 898.713C805.798 899.152 805.325 899.415 804.913 899.183C798.191 895.404 797.436 858.769 797.94 839.479C797.954 838.967 797.584 838.543 797.078 838.462C781.368 835.948 759.261 821.355 750.018 814.243" stroke="black" stroke-width="5" stroke-linecap="round"/>
<path d="M823.804 851.12C850.378 838.451 917.605 806.72 973.92 781.15" stroke="black" stroke-width="5" stroke-linecap="round"/>
<path d="M803.449 899.463L853.064 867.658" stroke="black" stroke-width="5" stroke-linecap="round"/>
<path d="M814.899 826.949L883.596 802.777" stroke="black" stroke-width="5" stroke-linecap="round"/>
<path d="M776.397 942.203C751.165 955.837 682.283 970.406 608.612 919.612" stroke="black" stroke-width="5" stroke-linecap="round"/>
<path d="M739.028 910.943C696.966 904.663 597.024 867.105 533.748 767.118" stroke="black" stroke-width="5" stroke-linecap="round"/>
<path d="M1099.94 693.788C1082.74 799.866 1135.19 895.446 1215.61 908.488C1296.03 921.531 1375.99 847.426 1393.2 741.348C1410.4 635.27 1357.95 539.691 1277.53 526.648C1197.11 513.605 1117.15 587.711 1099.94 693.788Z" stroke="black" stroke-width="5"/>
<path d="M1133.17 697.231C1126.58 737.844 1132.85 776.496 1148.18 806.14C1163.51 835.784 1187.81 856.272 1217.32 861.058C1246.83 865.844 1276.36 854.086 1300.28 830.808C1324.2 807.53 1342.36 772.839 1348.94 732.226C1355.53 691.612 1349.26 652.96 1333.93 623.316C1318.6 593.673 1294.3 573.184 1264.79 568.398C1235.28 563.612 1205.75 575.37 1181.83 598.648C1157.91 621.926 1139.75 656.617 1133.17 697.231Z" stroke="black" stroke-width="5"/>
<ellipse cx="56.3586" cy="75.9911" rx="56.3586" ry="75.9911" transform="matrix(-0.987103 -0.160089 -0.160089 0.987103 1298.54 650.358)" fill="black"/>
<path d="M1360.24 888.015C1258.46 985.972 1145.24 928.724 1121.07 867.024C1131.83 928.569 1204.76 963.487 1265.46 964.98C1332.25 964.98 1415.58 909.64 1438.48 859.389C1522.74 674.47 1394.37 544.315 1330.34 526.081C1450.56 582.693 1469.62 782.734 1360.24 888.015Z" fill="black"/>
</svg>
