<svg width="2000" height="1500" viewBox="0 0 2000 1500" fill="none" xmlns="http://www.w3.org/2000/svg">
<rect width="2000" height="1500" rx="50" fill="white"/>
<path d="M951.5 924.862C957.478 842.161 947.913 681.341 861.824 699.675C775.734 718.008 772.147 821.568 781.115 871.057C789.086 899.952 834.721 886.601 798.054 793.337" stroke="black" stroke-width="5" stroke-linecap="round"/>
<path d="M768.161 783.373C743.915 782.708 687.292 807.88 721.33 892.977C765.172 1002.58 990.36 1065.35 1056.12 892.977" stroke="black" stroke-width="5" stroke-linecap="round"/>
<path d="M1114.91 840.168C1097.97 820.24 1079.04 840.168 1061.1 820.24V870.5C1064.29 878.471 1071.78 870.5 1076.05 867.071L1114.91 840.168Z" fill="black"/>
<path d="M1151.78 813.265L1069.01 872.384C1065.7 874.748 1061.1 872.383 1061.1 868.316V759.459" stroke="black" stroke-width="5" stroke-linecap="round"/>
<path d="M1101.96 736.542L1166.72 606.013" stroke="black" stroke-width="5" stroke-linecap="round"/>
<path d="M1200.6 608.006L1126.87 758.463" stroke="black" stroke-width="5" stroke-linecap="round"/>
<path d="M1224.51 637.898L1160.74 766.434" stroke="black" stroke-width="5" stroke-linecap="round"/>
<path d="M1141.81 594.056L1064.07 752.496C1063.69 753.267 1064.4 754.141 1065.24 753.963C1077.74 751.318 1099.14 752.712 1100.87 776.575C1100.93 777.358 1101.81 777.833 1102.48 777.425C1113.48 770.735 1132.34 765.885 1131.93 793.029C1131.91 793.901 1132.94 794.437 1133.64 793.912C1143.38 786.566 1159.44 780.263 1160.69 802.686C1160.75 803.758 1162.29 804.136 1162.77 803.172L1243.45 638.894" stroke="black" stroke-width="5" stroke-linecap="round"/>
<path d="M1233.48 501.391C1200 495.811 1184.33 508.365 1180.67 515.34L1160.53 554.675C1160.18 555.355 1160.67 556.161 1161.43 556.146C1188.89 555.627 1245.01 565.82 1262.5 603.991C1262.85 604.771 1263.97 604.815 1264.36 604.048L1269.35 594.056L1289.11 553.56C1289.22 553.331 1289.24 553.078 1289.16 552.835C1284.34 537.75 1266.69 506.925 1233.48 501.391Z" fill="black" stroke="black" stroke-width="5" stroke-linecap="round"/>
<path d="M1262.38 607.01L1246.78 636.377C1246.33 637.212 1245.04 637.047 1244.77 636.14C1239.47 617.912 1213.13 585.381 1148.39 584.117C1147.66 584.103 1147.16 583.337 1147.47 582.678L1158.75 559.182" stroke="black" stroke-width="5" stroke-linecap="round"/>
<path d="M1164.73 572.136C1178.35 570.143 1213.36 573.731 1244.44 604.021" stroke="black" stroke-width="5" stroke-linecap="round"/>
</svg>
