<svg width="24" height="24" viewBox="0 0 24 24" fill="none" xmlns="http://www.w3.org/2000/svg">
<path d="M22 5.84939C21.7251 2.32848 18.9607 1.0531 17.1987 1.00156C17.1277 0.999487 17.0607 1.03014 17.0133 1.08303L4.60881 14.9171C4.58528 14.9434 4.56756 14.9743 4.55683 15.0078L2.60265 21.1162M21.8831 5.9677L9.6482 20.4618C9.61823 20.4973 9.57897 20.5237 9.53481 20.5382L4.3031 22.2475M9.48532 20.5161C9.17328 19.0572 7.80111 16.187 4.80695 15.43M2.81932 22.7322L2.46473 22.8481C2.27088 22.9114 2.08684 22.7285 2.14898 22.5343L2.22216 22.3055M2.81932 22.7322C2.87951 22.7252 2.84435 22.63 2.22216 22.3055M2.81932 22.7322L3.4274 22.5336M2.22216 22.3055L2.35192 21.8999M3.4274 22.5336C3.18622 22.3224 2.63346 21.8999 2.35192 21.8999M3.4274 22.5336L3.96483 22.358M2.35192 21.8999L2.49534 21.4516M3.96483 22.358C3.64012 22.0898 2.89162 21.533 2.49534 21.4516M3.96483 22.358L4.3031 22.2475M2.49534 21.4516L2.60265 21.1162M4.3031 22.2475C4.12235 21.9758 3.52922 21.3692 2.60265 21.1162" stroke="black" stroke-linecap="round"/>
</svg>
